# Blender 4.2.0
# www.blender.org
mtllib medieval_sword.mtl
o Blade
v 0.027000 0.000000 0.000000
v 0.000000 0.000000 -0.007000
v -0.027000 0.000000 0.000000
v 0.000000 0.000000 0.007000
v 0.026000 0.040000 0.000000
v 0.000000 0.040000 -0.006800
v -0.026000 0.040000 0.000000
v 0.000000 0.040000 0.006800
v 0.022000 0.450000 0.000000
v 0.000000 0.450000 -0.006000
v -0.022000 0.450000 0.000000
v 0.000000 0.450000 0.006000
v 0.015000 0.650000 0.000000
v 0.000000 0.650000 -0.005000
v -0.015000 0.650000 0.000000
v 0.000000 0.650000 0.005000
v 0.006000 0.730000 0.000000
v 0.000000 0.730000 -0.003000
v -0.006000 0.730000 0.000000
v 0.000000 0.730000 0.003000
v 0.000000 0.775000 0.000000
vn 0.2520 0.0056 -0.9677
vn -0.2520 0.0056 -0.9677
vn -0.2520 0.0056 0.9677
vn 0.2520 0.0056 0.9677
vn 0.2577 0.0022 -0.9662
vn -0.2577 0.0022 -0.9662
vn -0.2577 0.0022 0.9662
vn 0.2577 0.0022 0.9662
vn 0.2850 0.0074 -0.9585
vn -0.2850 0.0074 -0.9585
vn -0.2850 0.0074 0.9585
vn 0.2850 0.0074 0.9585
vn 0.3558 0.0317 -0.9340
vn -0.3558 0.0317 -0.9340
vn -0.3558 0.0317 0.9340
vn 0.3558 0.0317 0.9340
vn -0.0000 -1.0000 -0.0000
vn 0.4464 0.0595 -0.8928
vn -0.4464 0.0595 -0.8928
vn -0.4464 0.0595 0.8928
vn 0.4464 0.0595 0.8928
s 0
usemtl Steel
f 1//1 2//1 6//1 5//1
f 2//2 3//2 7//2 6//2
f 3//3 4//3 8//3 7//3
f 4//4 1//4 5//4 8//4
f 5//5 6//5 10//5 9//5
f 6//6 7//6 11//6 10//6
f 7//7 8//7 12//7 11//7
f 8//8 5//8 9//8 12//8
f 9//9 10//9 14//9 13//9
f 10//10 11//10 15//10 14//10
f 11//11 12//11 16//11 15//11
f 12//12 9//12 13//12 16//12
f 13//13 14//13 18//13 17//13
f 14//14 15//14 19//14 18//14
f 15//15 16//15 20//15 19//15
f 16//16 13//16 17//16 20//16
f 4//17 3//17 2//17 1//17
f 17//18 18//18 21//18
f 18//19 19//19 21//19
f 19//20 20//20 21//20
f 20//21 17//21 21//21
o Guard
v -0.105000 -0.011000 0.009000
v -0.105000 -0.011000 -0.009000
v -0.105000 0.005000 -0.009000
v -0.105000 0.005000 0.009000
v -0.085000 -0.019000 0.011000
v -0.085000 -0.019000 -0.011000
v -0.085000 0.001000 -0.011000
v -0.085000 0.001000 0.011000
v -0.025000 -0.026000 0.014000
v -0.025000 -0.026000 -0.014000
v -0.025000 0.000000 -0.014000
v -0.025000 0.000000 0.014000
v 0.025000 -0.026000 0.014000
v 0.025000 -0.026000 -0.014000
v 0.025000 0.000000 -0.014000
v 0.025000 0.000000 0.014000
v 0.085000 -0.019000 0.011000
v 0.085000 -0.019000 -0.011000
v 0.085000 0.001000 -0.011000
v 0.085000 0.001000 0.011000
v 0.105000 -0.011000 0.009000
v 0.105000 -0.011000 -0.009000
v 0.105000 0.005000 -0.009000
v 0.105000 0.005000 0.009000
vn -0.3714 -0.9285 -0.0000
vn -0.0995 -0.0000 -0.9950
vn 0.1961 0.9806 -0.0000
vn -0.0995 -0.0000 0.9950
vn -0.1159 -0.9933 -0.0000
vn -0.0499 -0.0000 -0.9988
vn 0.0167 0.9999 -0.0000
vn -0.0499 -0.0000 0.9988
vn -0.0000 -1.0000 -0.0000
vn -0.0000 -0.0000 -1.0000
vn -0.0000 1.0000 -0.0000
vn -0.0000 -0.0000 1.0000
vn 0.1159 -0.9933 -0.0000
vn 0.0499 -0.0000 -0.9988
vn -0.0167 0.9999 -0.0000
vn 0.0499 -0.0000 0.9988
vn 0.3714 -0.9285 -0.0000
vn 0.0995 -0.0000 -0.9950
vn -0.1961 0.9806 -0.0000
vn 0.0995 -0.0000 0.9950
vn -1.0000 -0.0000 -0.0000
vn 1.0000 -0.0000 -0.0000
s 0
usemtl DarkIron
f 22//22 23//22 27//22 26//22
f 23//23 24//23 28//23 27//23
f 24//24 25//24 29//24 28//24
f 25//25 22//25 26//25 29//25
f 26//26 27//26 31//26 30//26
f 27//27 28//27 32//27 31//27
f 28//28 29//28 33//28 32//28
f 29//29 26//29 30//29 33//29
f 30//30 31//30 35//30 34//30
f 31//31 32//31 36//31 35//31
f 32//32 33//32 37//32 36//32
f 33//33 30//33 34//33 37//33
f 34//34 35//34 39//34 38//34
f 35//35 36//35 40//35 39//35
f 36//36 37//36 41//36 40//36
f 37//37 34//37 38//37 41//37
f 38//38 39//38 43//38 42//38
f 39//39 40//39 44//39 43//39
f 40//40 41//40 45//40 44//40
f 41//41 38//41 42//41 45//41
f 25//42 24//42 23//42 22//42
f 42//43 43//43 44//43 45//43
o Grip
v 0.013858 -0.026000 -0.005740
v 0.005740 -0.026000 -0.013858
v -0.005740 -0.026000 -0.013858
v -0.013858 -0.026000 -0.005740
v -0.013858 -0.026000 0.005740
v -0.005740 -0.026000 0.013858
v 0.005740 -0.026000 0.013858
v 0.013858 -0.026000 0.005740
v 0.016630 -0.075000 -0.006888
v 0.006888 -0.075000 -0.016630
v -0.006888 -0.075000 -0.016630
v -0.016630 -0.075000 -0.006888
v -0.016630 -0.075000 0.006888
v -0.006888 -0.075000 0.016630
v 0.006888 -0.075000 0.016630
v 0.016630 -0.075000 0.006888
v 0.013858 -0.124000 -0.005740
v 0.005740 -0.124000 -0.013858
v -0.005740 -0.124000 -0.013858
v -0.013858 -0.124000 -0.005740
v -0.013858 -0.124000 0.005740
v -0.005740 -0.124000 0.013858
v 0.005740 -0.124000 0.013858
v 0.013858 -0.124000 0.005740
vn 0.7060 0.0565 -0.7060
vn -0.0000 0.0565 -0.9984
vn -0.7060 0.0565 -0.7060
vn -0.9984 0.0565 -0.0000
vn -0.7060 0.0565 0.7060
vn -0.0000 0.0565 0.9984
vn 0.7060 0.0565 0.7060
vn 0.9984 0.0565 -0.0000
vn 0.7060 -0.0565 -0.7060
vn -0.0000 -0.0565 -0.9984
vn -0.7060 -0.0565 -0.7060
vn -0.9984 -0.0565 -0.0000
vn -0.7060 -0.0565 0.7060
vn -0.0000 -0.0565 0.9984
vn 0.7060 -0.0565 0.7060
vn 0.9984 -0.0565 -0.0000
vn -0.0000 1.0000 -0.0000
vn -0.0000 -1.0000 -0.0000
s 0
usemtl Leather
f 46//44 54//44 55//44 47//44
f 47//45 55//45 56//45 48//45
f 48//46 56//46 57//46 49//46
f 49//47 57//47 58//47 50//47
f 50//48 58//48 59//48 51//48
f 51//49 59//49 60//49 52//49
f 52//50 60//50 61//50 53//50
f 53//51 61//51 54//51 46//51
f 54//52 62//52 63//52 55//52
f 55//53 63//53 64//53 56//53
f 56//54 64//54 65//54 57//54
f 57//55 65//55 66//55 58//55
f 58//56 66//56 67//56 59//56
f 59//57 67//57 68//57 60//57
f 60//58 68//58 69//58 61//58
f 61//59 69//59 62//59 54//59
f 53//60 46//60 47//60 48//60 49//60 50//60 51//60 52//60
f 62//61 69//61 68//61 67//61 66//61 65//61 64//61 63//61
o Pommel
v 0.000000 -0.180000 -0.006000
v 0.000000 -0.192000 -0.008000
v 0.000000 -0.118000 -0.012000
v 0.000000 -0.118000 0.012000
v 0.022627 -0.127373 -0.012000
v 0.022627 -0.127373 0.012000
v 0.032000 -0.150000 -0.012000
v 0.032000 -0.150000 0.012000
v 0.022627 -0.172627 -0.012000
v 0.022627 -0.172627 0.012000
v 0.000000 -0.182000 -0.012000
v 0.000000 -0.182000 0.012000
v -0.022627 -0.172627 -0.012000
v -0.022627 -0.172627 0.012000
v -0.032000 -0.150000 -0.012000
v -0.032000 -0.150000 0.012000
v -0.022627 -0.127373 -0.012000
v -0.022627 -0.127373 0.012000
v 0.006928 -0.192000 -0.004000
v 0.005196 -0.180000 -0.003000
v 0.006928 -0.192000 0.004000
v 0.005196 -0.180000 0.003000
v 0.000000 -0.192000 0.008000
v 0.000000 -0.180000 0.006000
v -0.006928 -0.192000 0.004000
v -0.005196 -0.180000 0.003000
v -0.006928 -0.192000 -0.004000
v -0.005196 -0.180000 -0.003000
vn -0.4949 0.1429 -0.8571
vn 0.3827 0.9239 -0.0000
vn -0.9897 0.1429 -0.0000
vn 0.9239 0.3827 -0.0000
vn -0.0000 1.0000 -0.0000
vn 0.9239 -0.3827 -0.0000
vn -0.4949 0.1429 0.8571
vn 0.3827 -0.9239 -0.0000
vn 0.4949 0.1429 0.8571
vn -0.3827 -0.9239 -0.0000
vn 0.9897 0.1429 -0.0000
vn -0.9239 -0.3827 -0.0000
vn -0.0000 -0.0000 1.0000
vn 0.4949 0.1429 -0.8571
vn -0.9239 0.3827 -0.0000
vn -0.0000 -1.0000 -0.0000
vn -0.3827 0.9239 -0.0000
vn -0.0000 -0.0000 -1.0000
s 0
usemtl DarkIron
f 96//62 97//62 70//62 71//62
f 72//63 73//63 75//63 74//63
f 94//64 95//64 97//64 96//64
f 74//65 75//65 77//65 76//65
f 89//66 70//66 97//66 95//66 93//66 91//66
f 76//67 77//67 79//67 78//67
f 92//68 93//68 95//68 94//68
f 78//69 79//69 81//69 80//69
f 90//70 91//70 93//70 92//70
f 80//71 81//71 83//71 82//71
f 88//72 89//72 91//72 90//72
f 82//73 83//73 85//73 84//73
f 75//74 73//74 87//74 85//74 83//74 81//74 79//74 77//74
f 71//75 70//75 89//75 88//75
f 84//76 85//76 87//76 86//76
f 71//77 88//77 90//77 92//77 94//77 96//77
f 86//78 87//78 73//78 72//78
f 72//79 74//79 76//79 78//79 80//79 82//79 84//79 86//79
